<svg width="48" height="43" viewBox="0 0 48 43" fill="none" xmlns="http://www.w3.org/2000/svg">
<g clip-path="url(#clip0_5_35)">
<path d="M11.2833 19.2833C12.2483 18.9389 13.3142 18.6735 14.5058 18.5728L15.3708 17.7144L13.575 15.9167L18.5858 10.9058L20.4 12.725L23.2417 9.9L14.9 1.5625C13.8583 0.520833 12.4917 0 11.1333 0C9.76667 0 8.4 0.521 7.35833 1.5625L4.2325 4.68833C3.18917 5.73167 2.66667 7.0975 2.66667 8.46333C2.59167 11.2333 3.77083 11.7667 11.2833 19.2833ZM41.575 28.2417L37.9767 24.6442L35.1375 27.4617L38.745 31.07C38.9238 31.249 39.0476 31.4737 39.1031 31.7203L40.4823 37.8519C33.7598 36.3953 34.1339 36.4786 33.8906 36.1603L30.1839 32.4536L29.2489 33.3819C29.1422 34.4411 28.8705 35.4603 28.5264 36.4519L31.0631 38.9886C31.7613 39.687 32.6231 40.1711 33.5848 40.3969C36.7631 41.1454 43.8097 42.6411 43.8097 42.6411C43.7583 42.6583 43.9167 42.6667 44.0083 42.6667C44.7368 42.6667 45.3375 42.0662 45.3375 41.3375C45.3375 41.2503 45.3289 41.1612 45.3109 41.0711L43.0109 30.8378C42.7833 29.8583 42.2917 28.9583 41.575 28.2417ZM41.5667 0C39.8467 0 38.2317 0.663583 37.0175 1.86833L16.1833 22.5417C15.9958 22.5307 15.8114 22.5254 15.6306 22.5254C9.44975 22.5254 6.33892 27.9779 6.33892 31.9421C6.33892 32.5131 6.38455 32.7705 6.38455 32.9787C6.38455 34.1929 5.38705 34.9996 3.84955 34.9996C1.72833 34.925 0 36.7167 0 38.7583C0 40.95 1.72833 42.6667 3.85167 42.6667H8.07917C19.8958 42.6667 25.1708 38.5183 25.1708 32.025C25.1708 31.901 25.1685 31.7767 25.1638 31.652L46.0388 10.927C47.2583 9.725 48 8.1125 48 6.39917C48 2.8525 45.125 0 41.5667 0ZM21.2167 32.0583C21.2167 35.9583 17.8667 38.6667 8.08 38.6667H6.11C8.6775 37.8649 10.3875 35.6558 10.3875 32.9825C10.3875 32.5059 10.3419 32.382 10.3419 31.945C10.3419 29.0458 12.6694 26.5392 15.6485 26.5392C16.2739 26.5392 16.8085 26.6341 17.1894 26.6844L21.1302 30.6252C21.1833 31.1083 21.2167 31.5917 21.2167 32.0583ZM43.2917 8.09083L26.85 24.4158L23.425 20.9917L39.825 4.70833C40.2917 4.25083 40.9083 4 41.5667 4C42.925 4 44 5.07833 44 6.39917C44 7.03833 43.675 7.64 43.2917 8.09083Z" fill="#00AF55"/>
</g>
<defs>
<clipPath id="clip0_5_35">
<rect width="48" height="42.6667" fill="white"/>
</clipPath>
</defs>
</svg>
