<svg width="54" height="48" viewBox="0 0 54 48" fill="none" xmlns="http://www.w3.org/2000/svg">
<path d="M48 0H6C2.68594 0 0 2.68594 0 6V33C0 36.3141 2.68594 39 6 39H19.9031L19.0031 43.5H14.25C13.0125 43.5 12 44.5125 12 45.75C12 46.9875 13.0125 48 14.25 48H39.75C40.9922 48 42 46.9922 42 45.75C42 44.5078 40.9922 43.5 39.75 43.5H34.9941L34.0969 39H48C51.3141 39 54 36.3141 54 33V6C54 2.68594 51.3094 0 48 0ZM30.4031 43.5H23.5969L24.4969 39H29.5088L30.4031 43.5ZM49.5 33C49.5 33.8271 48.8271 34.5 48 34.5H6C5.17294 34.5 4.5 33.8271 4.5 33V6C4.5 5.17294 5.17294 4.5 6 4.5H48C48.8271 4.5 49.5 5.17294 49.5 6V33Z" fill="#00AF55"/>
<path d="M20.9153 13.6522C20.5515 13.2597 19.9369 13.2394 19.5448 13.6077L14.3698 18.4637C14.1737 18.6458 14.0625 18.9048 14.0625 19.1718C14.0625 19.4389 14.1737 19.6615 14.3695 19.88L19.5445 24.736C19.7307 24.91 19.9693 24.999 20.1714 24.999C20.4304 24.999 20.6885 24.8966 20.8793 24.6917C21.2457 24.301 21.2268 23.6865 20.8351 23.3195L16.4515 19.1718L20.8705 15.024C21.263 14.6558 21.2832 14.0447 20.9153 13.6522ZM29.8463 8.84782C29.3283 8.70494 28.7963 9.00843 28.6536 9.52564L23.4786 28.3021C23.3358 28.8192 23.639 29.3542 24.1558 29.4958C24.2427 29.5191 24.3276 29.5312 24.4125 29.5312C24.8382 29.5312 25.2288 29.2492 25.3472 28.8182L30.5222 10.0418C30.667 9.52422 30.3638 8.98946 29.8463 8.84782ZM39.6302 18.4637L34.4552 13.6077C34.0648 13.241 33.4493 13.2599 33.0843 13.652C32.7179 14.0427 32.7368 14.6571 33.1285 15.0242L37.5481 19.1718L33.1291 23.3196C32.7375 23.6864 32.7184 24.301 33.0849 24.6919C33.2747 24.8978 33.5334 24.999 33.7922 24.999C34.0297 24.999 34.268 24.9118 34.4552 24.736L39.6302 19.88C39.8283 19.6615 39.9375 19.4389 39.9375 19.1718C39.9375 18.9048 39.8283 18.6458 39.6302 18.4637Z" fill="#00AF55"/>
</svg>
