<svg width="60" height="48" viewBox="0 0 60 48" fill="none" xmlns="http://www.w3.org/2000/svg">
<path d="M50.9344 20.1094C50.9531 19.9031 51 19.7063 51 19.5C51 13.6969 46.3031 9 40.5 9C39.4303 9 38.4197 9.20691 37.4475 9.50409C34.5844 5.57906 29.9812 3 24.75 3C16.0125 3 8.94469 10.1156 9.0075 18.825C3.7725 20.6813 0 25.6313 0 31.5C0 38.9531 6.04406 45 13.5 45H47.25C54.2916 45 60 39.2916 60 32.25C60 26.5031 56.1656 21.6937 50.9344 20.1094ZM47.25 40.5H13.5C8.53688 40.5 4.5 36.4622 4.5 31.5C4.5 27.7312 6.91594 24.3412 10.5122 23.0653L13.53 21.9947C13.5044 18.3741 13.5089 18.8869 13.5025 18.51C13.6312 12.4125 18.6281 7.5 24.75 7.5C28.35 7.5 31.6528 9.19688 33.8119 12.1566L35.7 14.7441L38.7628 13.8077C43.3434 12.4071 46.6594 16.2039 46.4466 19.8452L46.241 23.3814L49.63 24.4118C53.1375 25.4813 55.5 28.6313 55.5 32.25C55.5 36.7969 51.7969 40.5 47.25 40.5ZM31.5094 16.4062C31.3021 16.199 31.0535 16.0349 30.7784 15.9208C30.2284 15.693 29.6084 15.693 29.059 15.9208C28.8656 16.0406 28.6125 16.2 28.4062 16.4062L20.1562 24.6562C19.2773 25.5352 19.2773 26.9588 20.1562 27.8381C21.0352 28.7175 22.4588 28.717 23.3381 27.8381L27.75 23.4281V35.25C27.75 36.4922 28.7578 37.5 30 37.5C31.2422 37.5 32.25 36.4922 32.25 35.25V23.4281L36.6591 27.8372C37.0969 28.2844 37.6688 28.5 38.25 28.5C38.8312 28.5 39.4013 28.2802 39.8409 27.8408C40.7198 26.9619 40.7198 25.5383 39.8409 24.659L31.5094 16.4062Z" fill="#00AF55"/>
</svg>
